<svg xmlns="http://www.w3.org/2000/svg" viewBox="0 0 200 200" width="200" height="200">
  <!-- Background Circle -->
  <circle cx="100" cy="100" r="90" fill="#4A5568" opacity="0.1"/>

  <!-- Main Icon - Gear/Settings -->
  <path d="M100 60 L110 70 L125 65 L130 80 L145 85 L140 100 L145 115 L130 120 L125 135 L110 130 L100 140 L90 130 L75 135 L70 120 L55 115 L60 100 L55 85 L70 80 L75 65 L90 70 Z"
        fill="#4A90E2"
        stroke="#2D5F8D"
        stroke-width="2"/>

  <!-- Inner Circle -->
  <circle cx="100" cy="100" r="20" fill="#FFFFFF" stroke="#2D5F8D" stroke-width="2"/>

  <!-- C Letter -->
  <text x="100" y="110"
        font-family="Arial, sans-serif"
        font-size="24"
        font-weight="bold"
        fill="#4A90E2"
        text-anchor="middle">C</text>

  <!-- Connection Lines -->
  <line x1="100" y1="40" x2="100" y2="60" stroke="#4A90E2" stroke-width="3"/>
  <line x1="100" y1="140" x2="100" y2="160" stroke="#4A90E2" stroke-width="3"/>
  <line x1="40" y1="100" x2="60" y2="100" stroke="#4A90E2" stroke-width="3"/>
  <line x1="140" y1="100" x2="160" y2="100" stroke="#4A90E2" stroke-width="3"/>
</svg>
